<svg id="Layer_1" height="512" viewBox="0 0 32 32" width="512" xmlns="http://www.w3.org/2000/svg" data-name="Layer 1"><path d="m16 27a1.006 1.006 0 0 1 -.35-.063c-.516-.19-12.65-4.828-12.65-14.586a7.361 7.361 0 0 1 7.353-7.351 6.548 6.548 0 0 1 5.647 3.2 6.548 6.548 0 0 1 5.647-3.2 7.361 7.361 0 0 1 7.353 7.351c0 9.758-12.134 14.4-12.65 14.588a1.006 1.006 0 0 1 -.35.061zm-5.647-20a5.359 5.359 0 0 0 -5.353 5.351c0 7.523 9.086 11.763 11 12.572 1.914-.809 11-5.049 11-12.572a5.359 5.359 0 0 0 -5.353-5.351c-2.686 0-3.861 1.9-4.752 3.681a1.042 1.042 0 0 1 -1.79 0c-.891-1.781-2.066-3.681-4.752-3.681z"/></svg>